<?xml version="1.0" encoding="UTF-8"?><svg xmlns="http://www.w3.org/2000/svg" xmlns:xlink="http://www.w3.org/1999/xlink" width="300" zoomAndPan="magnify" viewBox="0 0 300 299.999988" height="299.999988" preserveAspectRatio="xMidYMid meet" version="1.0"><defs><filter x="0%" y="0%" width="100%" xmlns:xlink="http://www.w3.org/1999/xlink" xlink:type="simple" xlink:actuate="onLoad" height="100%" id="filter-remove-color" xlink:show="other"><feColorMatrix values="0 0 0 0 1 0 0 0 0 1 0 0 0 0 1 0 0 0 1 0" color-interpolation-filters="sRGB"/></filter><mask id="mask-0"><g filter="url(#filter-remove-color)"><rect x="-30" width="360" fill="rgb(0%, 0%, 0%)" y="-29.999999" height="359.999986" fill-opacity="0.2784"/></g></mask><clipPath id="clip-0"><path d="M 2 15 L 234.640625 15 L 234.640625 233.46875 L 2 233.46875 Z M 2 15 " clip-rule="nonzero"/></clipPath><clipPath id="clip-1"><rect x="0" width="236" y="0" height="234"/></clipPath><clipPath id="clip-2"><path d="M 30.535156 20.558594 L 72.535156 20.558594 L 72.535156 85.058594 L 30.535156 85.058594 Z M 30.535156 20.558594 " clip-rule="nonzero"/></clipPath></defs><g mask="url(#mask-0)"><g transform="matrix(1, 0, 0, 1, 51, 52)"><g id="source-5" clip-path="url(#clip-1)"><path fill="rgb(0%, 0%, 0%)" d="M 230.234375 157.296875 C 230.234375 157.296875 230.054688 157.296875 230.234375 157.296875 C 195.132812 156.210938 163.832031 138.617188 140.855469 112.683594 C 124.933594 94.730469 119.867188 70.425781 106.117188 51.203125 C 92.726562 32.523438 67.761719 16.925781 37.542969 8.585938 C 35.554688 8.039062 34.46875 6.046875 35.011719 4.050781 C 35.554688 2.054688 37.542969 0.96875 39.535156 1.511719 C 58.351562 6.589844 92.726562 19.464844 112.085938 46.851562 C 125.65625 65.894531 130.722656 90.195312 146.285156 107.785156 C 167.632812 131.90625 197.847656 148.410156 230.414062 150.042969 C 232.40625 150.222656 234.035156 151.855469 233.851562 153.851562 C 233.671875 155.847656 232.226562 157.296875 230.234375 157.296875 Z M 230.234375 157.296875 " fill-opacity="1" fill-rule="nonzero"/><path fill="rgb(0%, 0%, 0%)" d="M 9.320312 9.855469 C 8.957031 9.855469 8.414062 9.855469 8.054688 9.671875 C 6.96875 9.308594 5.882812 8.765625 4.796875 8.402344 C 2.988281 7.679688 1.902344 5.683594 2.625 3.871094 C 3.347656 2.054688 5.339844 0.96875 7.148438 1.691406 C 8.234375 2.054688 9.5 2.601562 10.585938 2.960938 C 12.394531 3.6875 13.480469 5.683594 12.757812 7.679688 C 12.035156 8.949219 10.765625 9.855469 9.320312 9.855469 Z M 9.320312 9.855469 " fill-opacity="1" fill-rule="nonzero"/><path fill="rgb(0%, 0%, 0%)" d="M 87.480469 86.929688 C 85.851562 86.929688 84.40625 85.84375 84.042969 84.210938 C 83.320312 81.851562 82.777344 79.675781 82.054688 77.5 C 81.511719 75.503906 82.597656 73.511719 84.40625 72.964844 C 86.394531 72.421875 88.386719 73.511719 88.929688 75.324219 C 89.652344 77.683594 90.375 80.039062 90.917969 82.214844 C 91.460938 84.210938 90.375 86.207031 88.386719 86.75 C 88.023438 86.929688 87.84375 86.929688 87.480469 86.929688 Z M 87.480469 86.929688 " fill-opacity="1" fill-rule="nonzero"/><path fill="rgb(0%, 0%, 0%)" d="M 75.722656 48.664062 C 76.445312 49.570312 79.339844 53.742188 80.0625 54.832031 C 81.148438 56.460938 80.605469 58.820312 78.796875 59.910156 C 77.167969 60.996094 74.816406 60.453125 73.730469 58.640625 C 73.007812 57.550781 70.472656 53.925781 69.929688 53.015625 C 68.664062 51.386719 69.027344 49.207031 70.65625 47.9375 C 72.28125 46.851562 74.453125 47.03125 75.722656 48.664062 Z M 75.722656 48.664062 " fill-opacity="1" fill-rule="nonzero"/><path fill="rgb(0%, 0%, 0%)" d="M 92.367188 100.351562 C 94.175781 99.625 96.347656 100.53125 97.070312 102.527344 C 97.25 103.070312 99.0625 107.425781 99.785156 109.054688 C 100.507812 110.871094 99.785156 113.046875 97.976562 113.773438 C 96.164062 114.496094 93.996094 113.773438 93.269531 111.957031 C 92.546875 110.324219 90.738281 105.792969 90.558594 105.246094 C 89.652344 103.253906 90.558594 101.078125 92.367188 100.351562 Z M 92.367188 100.351562 " fill-opacity="1" fill-rule="nonzero"/><path fill="rgb(0%, 0%, 0%)" d="M 38.085938 20.554688 C 37.183594 22.1875 34.832031 22.730469 33.203125 21.824219 C 31.210938 20.554688 29.222656 19.464844 27.050781 18.378906 C 25.242188 17.472656 24.699219 15.292969 25.601562 13.480469 C 26.507812 11.667969 28.679688 11.125 30.488281 12.03125 C 32.660156 13.117188 34.832031 14.386719 36.820312 15.65625 C 38.628906 16.5625 39.171875 18.742188 38.085938 20.554688 Z M 38.085938 20.554688 " fill-opacity="1" fill-rule="nonzero"/><path fill="rgb(0%, 0%, 0%)" d="M 54.914062 27.808594 C 56.902344 29.257812 58.714844 30.890625 60.523438 32.523438 C 61.96875 33.792969 62.152344 36.152344 60.882812 37.601562 C 59.617188 39.050781 57.265625 39.234375 55.820312 37.964844 C 54.191406 36.511719 52.378906 35.0625 50.390625 33.613281 C 48.761719 32.34375 48.582031 30.167969 49.847656 28.535156 C 51.113281 26.902344 53.285156 26.71875 54.914062 27.808594 Z M 54.914062 27.808594 " fill-opacity="1" fill-rule="nonzero"/><path fill="rgb(0%, 0%, 0%)" d="M 198.753906 186.859375 C 200.742188 187.222656 203.277344 187.402344 205.808594 187.765625 C 207.800781 187.945312 209.246094 189.761719 208.886719 191.753906 C 208.703125 193.570312 206.714844 195.203125 204.90625 194.839844 C 202.371094 194.476562 199.839844 194.113281 197.847656 193.933594 C 195.859375 193.570312 194.410156 191.753906 194.773438 189.761719 C 194.773438 187.945312 196.761719 186.675781 198.753906 186.859375 Z M 198.753906 186.859375 " fill-opacity="1" fill-rule="nonzero"/><path fill="rgb(0%, 0%, 0%)" d="M 147.007812 167.816406 C 148.996094 169.085938 150.988281 170.355469 152.976562 171.445312 C 154.785156 172.53125 155.328125 174.707031 154.246094 176.339844 C 153.339844 177.972656 150.988281 178.699219 149.359375 177.609375 C 147.1875 176.339844 145.199219 175.070312 143.027344 173.800781 C 141.398438 172.710938 140.855469 170.535156 141.941406 168.722656 C 143.027344 167.089844 145.378906 166.726562 147.007812 167.816406 Z M 147.007812 167.816406 " fill-opacity="1" fill-rule="nonzero"/><path fill="rgb(0%, 0%, 0%)" d="M 171.792969 180.328125 C 173.964844 181.054688 176.136719 181.960938 178.308594 182.507812 C 180.296875 183.050781 181.203125 185.046875 180.660156 187.039062 C 180.117188 188.855469 177.945312 189.941406 176.136719 189.398438 C 173.785156 188.671875 171.433594 187.945312 169.261719 187.039062 C 167.453125 186.316406 166.367188 184.320312 167.089844 182.324219 C 167.8125 180.691406 169.804688 179.605469 171.792969 180.328125 Z M 171.792969 180.328125 " fill-opacity="1" fill-rule="nonzero"/><path fill="rgb(0%, 0%, 0%)" d="M 125.839844 149.863281 C 127.464844 151.492188 129.09375 153.125 130.722656 154.757812 C 132.171875 156.210938 132.171875 158.386719 130.90625 159.835938 C 129.636719 161.289062 127.285156 161.289062 125.839844 160.019531 C 124.027344 158.386719 122.402344 156.570312 120.589844 154.757812 C 119.144531 153.308594 119.324219 150.949219 120.773438 149.679688 C 122.21875 148.410156 124.390625 148.410156 125.839844 149.863281 Z M 125.839844 149.863281 " fill-opacity="1" fill-rule="nonzero"/><path fill="rgb(0%, 0%, 0%)" d="M 109.191406 127.734375 C 110.460938 129.730469 111.726562 131.726562 112.992188 133.722656 C 114.078125 135.351562 113.714844 137.710938 111.90625 138.800781 C 110.277344 139.886719 107.925781 139.523438 106.839844 137.710938 C 105.574219 135.714844 104.125 133.539062 102.859375 131.542969 C 101.773438 129.914062 102.316406 127.554688 104.125 126.648438 C 105.9375 125.378906 108.105469 126.105469 109.191406 127.734375 Z M 109.191406 127.734375 " fill-opacity="1" fill-rule="nonzero"/><path fill="rgb(0%, 0%, 0%)" d="M 230.234375 197.195312 C 228.96875 197.195312 227.703125 197.195312 226.433594 197.195312 C 224.445312 197.195312 222.816406 195.382812 222.996094 193.386719 C 222.996094 191.394531 224.808594 189.761719 226.796875 189.941406 C 228.0625 189.941406 229.148438 189.941406 230.234375 189.941406 C 232.226562 189.941406 233.851562 191.574219 233.851562 193.570312 C 233.851562 195.5625 232.226562 197.195312 230.234375 197.195312 Z M 230.234375 197.195312 " fill-opacity="1" fill-rule="nonzero"/><g clip-path="url(#clip-0)"><path fill="rgb(0%, 0%, 0%)" d="M 2.625 17.832031 C 3.53125 16.019531 5.699219 15.292969 7.511719 16.203125 C 35.375 29.804688 50.390625 56.460938 57.988281 76.414062 C 66.3125 98.175781 67.21875 121.75 74.273438 143.878906 C 87.300781 185.046875 116.972656 213.15625 155.691406 220.773438 C 180.480469 224.945312 205.628906 225.304688 230.597656 226.214844 C 232.585938 226.214844 234.214844 228.027344 234.035156 230.023438 C 234.035156 232.015625 232.40625 233.46875 230.414062 233.46875 C 230.414062 233.46875 230.414062 233.46875 230.234375 233.46875 C 204.90625 233.46875 179.210938 232.199219 154.246094 228.027344 C 112.8125 219.867188 81.148438 190.125 67.398438 146.234375 C 60.523438 124.289062 59.4375 100.714844 51.296875 79.132812 C 44.238281 60.453125 30.308594 35.425781 4.433594 22.730469 C 2.445312 21.824219 1.71875 19.648438 2.625 17.832031 Z M 2.625 17.832031 " fill-opacity="1" fill-rule="nonzero"/></g></g></g></g><g clip-path="url(#clip-2)"><path fill="rgb(93.728638%, 83.139038%, 23.919678%)" d="M 72.535156 41.613281 C 72.535156 30.007812 63.132812 20.605469 51.535156 20.605469 C 39.9375 20.605469 30.535156 30.007812 30.535156 41.613281 C 30.535156 41.820312 30.5625 42.023438 30.5625 42.230469 C 30.5625 42.234375 30.550781 42.234375 30.550781 42.234375 C 30.550781 42.703125 30.582031 43.191406 30.636719 43.699219 C 30.648438 43.792969 30.664062 43.878906 30.667969 43.972656 C 30.722656 44.402344 30.789062 44.847656 30.875 45.300781 C 30.929688 45.621094 30.988281 45.9375 31.0625 46.246094 C 34.269531 60.484375 51.53125 85.019531 51.53125 85.019531 C 51.53125 85.019531 67.03125 62.558594 71.394531 48.394531 C 71.742188 47.371094 72.011719 46.3125 72.199219 45.226562 C 72.402344 44.148438 72.53125 43.144531 72.53125 42.234375 C 72.53125 42.167969 72.507812 42.105469 72.507812 42.039062 C 72.511719 41.898438 72.535156 41.757812 72.535156 41.613281 Z M 51.535156 52.578125 C 45.390625 52.578125 40.414062 47.597656 40.414062 41.457031 C 40.414062 35.316406 45.390625 30.335938 51.535156 30.335938 C 57.671875 30.335938 62.652344 35.316406 62.652344 41.457031 C 62.652344 47.597656 57.671875 52.578125 51.535156 52.578125 Z M 51.535156 52.578125 " fill-opacity="1" fill-rule="nonzero"/></g></svg>