<?xml version="1.0" standalone="no"?>
<!DOCTYPE svg PUBLIC "-//W3C//DTD SVG 20010904//EN"
 "http://www.w3.org/TR/2001/REC-SVG-20010904/DTD/svg10.dtd">
<svg version="1.0" xmlns="http://www.w3.org/2000/svg"
 width="512.000000pt" height="512.000000pt" viewBox="0 0 512.000000 512.000000"
 preserveAspectRatio="xMidYMid meet">
<metadata>
Created by potrace 1.14, written by Peter Selinger 2001-2017
</metadata>
<g transform="translate(0.000000,512.000000) scale(0.100000,-0.100000)"
fill="#000000" stroke="none">
<path d="M2296 5108 c6 -18 -8 -21 -113 -20 -25 0 -31 -3 -27 -16 4 -12 2 -11
-7 3 -12 18 -13 18 -19 1 -4 -14 -18 -19 -53 -21 -42 -2 -46 0 -35 14 10 13 9
13 -8 -1 -11 -10 -41 -18 -71 -20 -28 -2 -49 -6 -46 -11 2 -4 9 -4 15 -1 6 4
8 2 5 -3 -4 -6 -26 -11 -49 -12 -67 -3 -69 -4 -64 -18 4 -8 -3 -13 -19 -14
-14 -1 -35 -2 -47 -2 -13 -1 -31 -10 -41 -22 -18 -20 -18 -20 -12 5 5 25 5 25
-6 3 -9 -16 -21 -23 -43 -23 -17 0 -38 -5 -46 -11 -11 -8 -8 -9 15 -5 20 4 25
3 15 -3 -8 -5 -31 -11 -50 -12 -19 -2 -38 -10 -41 -18 -5 -14 -34 -21 -83 -22
-17 0 -17 -1 -1 -13 16 -12 15 -13 -11 -14 -51 -3 -69 -9 -69 -23 0 -8 -8 -13
-18 -11 -10 2 -17 -3 -17 -13 0 -9 -5 -13 -10 -10 -6 4 -7 11 -4 17 4 7 2 8
-4 4 -6 -4 -8 -14 -5 -23 4 -10 2 -14 -4 -10 -6 4 -14 1 -16 -5 -4 -10 -8 -9
-16 2 -9 12 -11 10 -12 -10 0 -23 -1 -23 -9 -5 -7 16 -9 17 -9 3 -1 -9 -11
-18 -23 -20 -13 -2 -22 -9 -21 -16 3 -11 -8 -16 -23 -9 -3 1 -12 -9 -19 -23
-9 -15 -14 -19 -15 -10 0 12 -2 12 -9 2 -4 -7 -14 -12 -22 -10 -8 2 -13 -4
-12 -15 1 -14 -4 -17 -18 -14 -12 3 -19 0 -19 -9 0 -8 -5 -14 -11 -14 -5 0 -7
5 -3 12 4 7 3 8 -4 4 -6 -4 -9 -13 -5 -22 3 -9 0 -14 -8 -12 -8 2 -14 -4 -13
-12 1 -10 -8 -17 -24 -18 -14 -1 -31 -11 -39 -22 -8 -11 -19 -18 -24 -15 -8 6
-13 -9 -10 -29 1 -5 -5 -6 -14 -3 -10 5 -15 0 -15 -14 0 -11 -5 -17 -10 -14
-6 4 -7 11 -4 17 4 7 2 8 -5 4 -6 -4 -9 -12 -6 -17 4 -5 1 -9 -5 -9 -6 0 -8
-5 -4 -12 6 -10 4 -10 -8 0 -13 10 -18 10 -24 1 -4 -8 -3 -9 4 -5 7 4 12 3 12
-2 0 -6 -7 -12 -15 -16 -9 -3 -12 -12 -9 -23 3 -10 -2 -7 -10 7 l-15 25 -1
-27 c0 -21 -4 -26 -17 -21 -12 5 -15 2 -10 -10 5 -12 -1 -19 -18 -23 -14 -3
-25 -12 -25 -20 0 -8 -7 -14 -16 -14 -8 0 -13 -4 -9 -9 6 -10 -12 -26 -30 -26
-5 0 -9 -10 -9 -23 1 -18 -1 -20 -12 -11 -8 6 -15 9 -15 5 -1 -3 -2 -10 -3
-15 0 -5 -4 -12 -8 -16 -4 -4 -4 -14 0 -23 5 -14 3 -15 -9 -5 -12 10 -17 8
-28 -9 -7 -11 -8 -18 -3 -14 5 3 9 -1 9 -8 0 -8 -6 -12 -14 -9 -7 3 -16 -4
-21 -17 -4 -12 -12 -20 -17 -18 -6 2 -12 -8 -13 -22 -2 -14 -8 -29 -13 -35 -7
-7 -8 -4 -4 8 10 25 -9 21 -20 -5 -6 -13 -17 -22 -24 -20 -7 1 -10 -2 -6 -8 5
-8 11 -7 21 1 12 10 13 9 8 -5 -3 -9 -14 -16 -24 -16 -11 0 -17 -7 -16 -17 0
-10 -5 -17 -12 -15 -8 1 -12 -3 -10 -10 3 -7 -2 -19 -11 -26 -9 -8 -10 -11 -4
-7 9 4 11 1 7 -10 -5 -13 -9 -13 -22 -3 -10 8 -13 9 -9 1 4 -6 1 -14 -5 -16
-10 -4 -9 -6 1 -6 11 -1 11 -4 1 -16 -7 -8 -15 -13 -19 -11 -4 3 -8 -10 -9
-27 -2 -17 -8 -36 -14 -42 -8 -7 -9 -6 -3 4 5 9 3 12 -6 9 -7 -2 -14 -19 -14
-39 0 -24 -6 -35 -18 -37 -9 -2 -15 -7 -12 -12 3 -5 1 -11 -4 -15 -6 -3 -8
-12 -5 -19 3 -8 1 -17 -5 -21 -7 -3 -8 0 -5 9 3 9 1 16 -5 16 -6 0 -11 -13
-11 -29 0 -17 -6 -31 -16 -35 -8 -3 -12 -10 -9 -16 3 -5 2 -10 -4 -10 -5 0 -8
-12 -6 -26 2 -18 -2 -24 -11 -20 -8 3 -14 1 -14 -4 0 -5 8 -11 17 -13 14 -4
14 -5 -3 -6 -21 -1 -24 -9 -25 -73 0 -10 -4 -20 -10 -23 -5 -3 -6 0 -3 8 3 8
1 18 -5 22 -7 4 -11 -9 -11 -39 0 -35 -5 -48 -22 -60 -21 -15 -13 -22 17 -16
5 1 6 -2 2 -7 -5 -4 -14 -8 -20 -8 -7 -1 -11 -6 -9 -13 1 -7 -4 -12 -10 -12
-9 0 -8 -4 2 -10 13 -8 13 -10 -2 -10 -9 0 -19 -4 -22 -9 -4 -5 4 -7 16 -4
l23 5 -21 -15 c-16 -12 -22 -28 -23 -62 -2 -71 -3 -76 -18 -71 -9 4 -13 -5
-14 -29 -1 -19 -2 -43 -2 -52 -1 -10 -10 -23 -22 -30 -20 -12 -20 -12 3 -13
12 0 22 -4 22 -10 0 -5 -8 -10 -17 -10 -12 0 -18 -8 -18 -24 0 -13 3 -22 7
-19 5 2 8 -1 8 -6 0 -6 -4 -11 -9 -11 -4 0 -8 -22 -8 -49 0 -56 -10 -81 -24
-60 -5 8 -9 10 -9 4 0 -5 5 -17 10 -25 6 -10 10 -11 10 -2 0 6 5 12 10 12 7 0
7 -7 0 -20 -6 -11 -14 -19 -18 -16 -4 3 -7 -16 -6 -42 1 -68 3 -74 16 -66 7 4
8 3 4 -5 -4 -6 -12 -9 -17 -6 -17 11 -9 -18 9 -31 15 -12 15 -13 0 -8 -14 5
-16 -7 -16 -108 1 -66 5 -116 11 -120 13 -8 19 -40 6 -32 -5 3 -7 10 -4 15 4
5 2 9 -3 9 -5 0 -9 -25 -8 -54 0 -30 4 -50 8 -43 4 7 5 19 2 29 -2 9 -1 19 4
22 4 2 8 -20 7 -50 0 -30 2 -54 5 -54 3 0 5 -27 4 -60 0 -33 3 -60 8 -60 4 0
8 -5 8 -11 0 -5 -4 -8 -8 -5 -16 10 -5 -47 12 -59 13 -10 14 -14 4 -18 -10 -4
-10 -6 1 -6 11 -1 11 -4 0 -18 -10 -11 -10 -14 -1 -9 11 7 15 -17 15 -96 0
-10 4 -15 8 -12 5 3 7 9 5 13 -3 4 -1 13 3 19 4 8 9 -10 11 -40 1 -29 3 -61 3
-71 1 -10 7 -15 14 -13 11 5 19 -34 14 -66 0 -5 4 -8 10 -8 8 0 8 -4 0 -14 -9
-10 -8 -16 4 -26 13 -11 14 -10 9 4 -3 9 -2 16 3 16 5 0 10 -21 10 -46 1 -32
6 -49 19 -59 12 -8 19 -26 19 -47 0 -18 5 -33 12 -33 6 0 15 -3 19 -8 4 -4 2
-7 -6 -7 -9 0 -9 -4 -2 -12 6 -7 11 -17 11 -23 1 -5 6 -10 13 -10 11 0 15 -14
20 -68 2 -24 4 -26 14 -12 8 10 14 12 19 6 3 -6 2 -11 -3 -11 -5 0 -7 -11 -4
-25 3 -16 11 -25 24 -25 15 0 18 -5 13 -20 -3 -11 -2 -20 3 -20 6 0 8 -10 5
-23 -4 -17 -2 -19 5 -8 9 12 12 10 17 -12 4 -15 12 -27 19 -27 6 0 4 -4 -4
-10 -8 -5 -11 -12 -7 -16 3 -4 13 -1 21 5 12 10 13 8 9 -10 -4 -15 -3 -20 5
-15 8 4 10 2 6 -7 -3 -8 0 -18 7 -23 8 -5 10 -3 4 6 -5 9 -4 11 4 6 6 -4 9
-12 6 -17 -4 -5 -2 -9 4 -9 5 0 8 -9 6 -21 -4 -18 -2 -19 11 -8 8 7 14 8 13 3
-5 -30 2 -53 16 -48 11 5 13 2 8 -12 -4 -12 -3 -15 5 -10 7 4 12 1 12 -9 0
-11 5 -15 15 -11 8 3 14 2 14 -2 -1 -4 -1 -18 0 -31 1 -18 4 -21 14 -12 10 8
14 7 15 -4 1 -8 3 -22 4 -30 1 -8 4 -12 8 -10 13 8 76 -74 72 -96 0 -3 6 -6
14 -7 8 -1 20 -3 28 -4 8 -1 15 -4 14 -7 -2 -22 4 -31 14 -25 8 5 7 0 -2 -11
-14 -17 -13 -18 2 -13 18 7 32 -16 21 -35 -4 -7 1 -6 11 2 15 12 17 12 14 0
-2 -10 5 -13 22 -11 22 3 23 2 10 -10 -8 -7 -13 -12 -11 -11 11 7 29 -20 25
-35 -3 -9 2 -6 11 8 9 14 14 17 11 7 -3 -9 -1 -17 4 -17 6 0 10 -8 11 -17 0
-15 2 -15 9 2 8 19 9 19 9 -2 1 -16 7 -23 21 -23 11 0 20 -5 20 -11 0 -6 -7
-8 -18 -4 -12 4 -14 3 -7 -4 6 -6 23 -12 37 -13 19 -2 24 -6 18 -14 -12 -13
-3 -24 21 -24 9 0 19 -7 23 -15 3 -8 13 -15 23 -15 10 0 32 -16 50 -36 18 -21
42 -37 56 -38 14 0 24 -3 22 -6 -2 -3 3 -14 11 -25 8 -10 14 -13 14 -6 0 7 5
9 11 6 6 -4 8 -14 5 -22 -4 -10 -1 -13 13 -8 14 4 21 0 26 -15 5 -14 15 -20
37 -20 23 0 29 -4 24 -15 -3 -10 1 -15 14 -16 11 -1 25 -3 30 -4 6 -1 17 -3
25 -4 8 0 12 -7 9 -14 -3 -8 5 -13 23 -15 15 -1 31 -6 37 -12 6 -6 1 -8 -14
-5 -12 2 -20 1 -16 -2 8 -9 32 -13 72 -14 17 -1 37 -5 45 -11 10 -7 9 -8 -7
-4 -13 4 -21 2 -21 -7 0 -9 15 -13 48 -13 38 1 45 -1 37 -12 -6 -7 -8 -16 -4
-19 4 -4 11 -1 15 6 6 8 10 9 12 2 2 -5 19 -11 37 -13 17 -1 32 -6 32 -11 0
-5 -7 -7 -15 -4 -8 4 -17 3 -19 -2 -3 -4 0 -8 7 -9 7 0 29 -2 49 -3 24 -1 35
-6 31 -13 -4 -6 2 -4 12 4 10 8 16 10 12 3 -4 -6 -3 -14 2 -17 5 -4 12 2 14
11 3 13 5 12 6 -6 1 -17 5 -22 17 -17 10 4 22 -1 30 -11 13 -17 14 -17 8 2 -6
19 -5 19 13 -1 14 -16 31 -22 73 -23 30 -1 59 -6 64 -11 6 -6 1 -8 -14 -5 -12
2 -20 1 -16 -2 4 -4 18 -9 31 -10 19 -3 23 0 19 12 -3 8 -1 15 6 15 6 0 9 -4
5 -9 -10 -16 15 -24 85 -25 38 0 72 -5 77 -10 5 -5 3 -6 -4 -2 -8 4 -13 2 -13
-6 0 -9 16 -13 55 -13 32 1 55 -4 55 -10 0 -6 3 -7 8 0 7 10 82 14 82 4 0 -3
14 -4 31 -3 21 1 29 -2 26 -10 -3 -7 1 -13 9 -13 8 0 13 5 11 12 -3 6 6 12 19
13 13 1 24 -3 24 -9 0 -5 -4 -8 -9 -4 -5 3 -12 2 -15 -3 -5 -8 290 -10 298 -1
3 3 -14 5 -38 4 -24 0 -52 2 -63 6 -10 3 15 6 55 5 49 0 71 -4 68 -11 -2 -7 2
-12 10 -12 10 0 12 7 8 21 -6 21 -6 21 11 1 9 -11 14 -15 11 -8 -8 15 14 22
42 12 12 -5 22 -5 22 0 0 4 16 6 36 4 26 -3 34 0 28 8 -5 8 -3 9 6 4 8 -5 33
-9 57 -9 37 -1 41 1 26 11 -13 10 -19 10 -26 0 -6 -9 -8 -9 -5 2 4 15 48 24
48 9 0 -4 5 -8 11 -8 5 0 7 5 3 11 -4 7 -1 10 7 7 8 -3 13 -11 11 -17 -1 -7 2
-10 8 -6 6 3 8 11 5 16 -5 8 48 14 83 10 6 -1 12 3 12 9 0 6 -4 9 -9 5 -5 -3
-12 -2 -14 2 -3 5 16 9 41 11 26 1 56 4 67 7 11 2 24 4 28 4 5 1 5 5 2 11 -3
5 -1 10 4 10 6 0 11 -4 11 -10 0 -5 4 -10 10 -10 5 0 9 6 7 12 -1 7 4 12 12
10 8 -2 18 3 22 10 7 10 9 10 9 0 0 -9 5 -10 19 -2 14 7 21 6 25 -3 3 -6 3 -2
0 11 -5 20 -2 22 33 23 45 1 73 5 81 13 3 3 -9 4 -26 2 -17 -2 -29 0 -27 4 3
4 15 8 27 9 13 1 39 2 59 4 25 1 35 6 32 15 -4 10 -8 10 -22 0 -14 -11 -14
-11 -3 3 7 10 25 15 47 14 26 -1 36 3 41 17 3 12 15 18 34 18 16 0 33 7 37 15
5 8 19 16 33 18 13 2 26 10 29 18 3 8 12 14 19 15 6 1 22 2 34 2 12 1 18 5 15
9 -12 12 13 31 36 27 12 -2 16 -1 9 2 -21 10 24 36 51 30 12 -3 17 -3 10 0 -7
3 -9 12 -6 20 3 7 8 12 12 10 3 -2 20 2 36 10 17 8 22 12 13 10 -10 -3 -20 -1
-23 5 -4 5 -3 9 2 8 4 -1 20 -1 36 0 20 1 27 6 27 21 0 11 3 19 8 19 20 -3 32
2 29 14 -1 6 6 11 16 9 9 -2 17 2 17 8 0 6 4 9 9 5 5 -3 13 0 17 6 4 7 3 9 -4
5 -6 -3 -14 -2 -17 4 -4 6 -3 10 2 9 31 -5 55 2 49 17 -3 8 -2 12 4 9 6 -3 10
-1 10 5 0 6 5 8 10 5 6 -3 14 4 19 17 4 13 11 22 15 21 17 -7 27 -1 22 13 -5
13 -2 15 14 11 15 -4 20 -1 18 11 -2 9 6 21 18 27 11 5 19 15 17 21 -2 7 8 15
22 18 14 4 23 11 20 16 -3 6 3 10 13 10 15 0 19 5 15 20 -6 22 12 28 20 8 3
-7 6 -1 6 15 1 21 6 27 22 27 15 0 19 5 15 15 -4 10 1 15 14 15 11 0 20 5 20
10 0 22 2 25 21 32 11 4 17 13 14 19 -4 6 3 13 15 16 13 3 19 11 16 19 -3 8 1
14 10 14 16 0 34 38 27 58 -4 8 0 10 10 6 12 -4 18 2 23 20 3 14 10 23 15 20
11 -6 29 36 22 51 -2 6 3 1 13 -10 13 -16 16 -17 11 -3 -3 10 -2 20 3 23 5 3
7 12 3 20 -3 9 1 15 11 15 9 0 16 3 17 8 3 27 9 46 20 56 9 8 11 7 6 -6 -3
-10 -3 -19 1 -22 7 -4 12 26 15 81 0 7 4 10 9 7 5 -3 6 -10 3 -15 -4 -5 -1 -9
5 -9 7 0 10 7 7 15 -4 8 -2 17 3 20 5 3 6 13 3 22 -4 10 -2 14 4 10 15 -9 31
14 28 41 -1 13 3 26 8 29 6 4 7 1 2 -8 -7 -12 -6 -12 8 -1 8 8 17 28 19 45 2
19 9 32 17 32 8 0 15 13 17 30 7 51 10 64 17 71 3 4 4 -4 2 -16 -2 -12 -1 -20
2 -16 4 4 9 19 11 34 2 15 9 30 16 34 7 4 13 26 14 49 2 45 6 54 25 54 7 0 12
15 11 38 0 20 4 37 10 37 6 0 4 5 -4 10 -12 8 -10 10 10 10 l25 1 -25 10 c-20
8 -22 12 -10 19 9 6 17 5 23 -3 5 -7 7 6 5 31 -3 32 0 42 12 42 11 0 12 2 3 8
-7 4 -11 17 -10 29 0 12 5 19 9 17 5 -3 6 -9 3 -14 -3 -5 -2 -11 3 -14 8 -5
11 14 12 93 0 29 6 49 18 57 16 13 16 13 0 14 -21 0 -22 9 -7 30 10 13 10 13
6 -1 -3 -9 0 -16 6 -16 7 0 12 17 12 39 0 30 -3 37 -15 33 -12 -4 -12 -3 1 8
9 7 16 25 15 42 -1 17 5 39 14 49 11 14 11 17 1 11 -11 -6 -13 4 -9 58 2 37 0
63 -5 60 -5 -3 -5 3 1 13 5 11 8 31 6 46 -1 15 1 30 5 32 4 3 6 -31 6 -75 -1
-44 1 -81 4 -83 3 -2 6 67 7 154 0 110 -3 157 -11 154 -7 -3 -11 14 -10 48 0
29 -3 61 -8 71 -4 10 -4 17 2 17 5 0 11 -6 14 -12 3 -7 4 -3 4 9 -1 12 -5 19
-9 17 -4 -3 -8 7 -9 23 -3 89 -5 98 -16 96 -8 -2 -10 4 -6 14 5 12 3 14 -8 8
-8 -5 -3 4 11 20 14 16 19 25 13 21 -7 -4 -13 -2 -13 4 0 6 -4 9 -8 6 -10 -6
-9 24 1 41 4 6 3 14 -2 17 -4 3 -8 18 -8 33 -1 15 -6 29 -12 31 -6 2 -11 11
-11 20 0 15 2 15 10 2 7 -12 9 -10 8 7 -1 12 -7 19 -15 16 -9 -4 -13 5 -14 28
-3 79 -5 98 -13 106 -5 4 -6 3 -2 -4 3 -6 1 -15 -5 -19 -8 -4 -7 -9 2 -16 12
-8 12 -9 0 -6 -10 3 -14 22 -15 66 0 34 -5 62 -9 62 -5 0 -5 4 -2 10 3 6 -1 7
-9 4 -13 -5 -16 1 -16 26 0 19 -7 38 -17 46 -17 13 -17 14 2 8 l20 -5 -20 13
c-14 9 -20 23 -19 46 1 22 -4 32 -14 32 -11 0 -12 -3 -3 -14 9 -11 9 -16 0
-22 -7 -4 -9 -3 -5 4 3 6 3 13 -2 16 -5 3 -8 21 -7 40 2 25 -2 36 -12 36 -8 0
-11 -5 -7 -12 4 -7 3 -8 -5 -4 -9 6 -9 11 -1 21 8 9 8 14 -1 17 -7 2 -12 20
-12 39 1 18 -1 28 -4 21 -7 -18 -23 -4 -23 19 0 14 -4 18 -12 13 -8 -5 -7 0 2
11 13 17 13 18 -1 13 -13 -5 -18 1 -22 22 -3 15 -13 34 -21 43 -8 8 -17 26
-19 41 -3 27 -13 34 -25 20 -4 -4 -2 -4 4 -1 6 3 11 0 11 -8 0 -11 -4 -12 -13
-4 -7 6 -11 19 -9 29 2 11 -5 26 -16 33 -10 8 -16 17 -12 20 3 4 1 7 -6 7 -8
0 -10 8 -6 23 7 22 7 22 -10 2 -9 -11 -13 -14 -10 -7 4 8 -1 20 -11 28 -11 9
-13 13 -6 9 6 -3 12 -2 12 4 0 5 -9 13 -21 16 -14 5 -19 13 -16 26 3 12 -2 23
-14 29 -10 6 -19 17 -19 25 0 8 -9 15 -19 15 -14 0 -19 6 -16 20 2 11 1 19 -3
19 -22 -3 -32 3 -32 20 0 11 -5 23 -12 27 -7 4 -8 3 -4 -4 4 -7 2 -12 -3 -12
-10 0 -15 20 -13 41 1 4 -9 5 -21 3 -12 -2 -16 -2 -10 2 10 4 9 9 -2 21 -8 8
-12 19 -9 25 4 7 2 8 -5 4 -6 -4 -8 -13 -5 -19 5 -9 4 -9 -4 -2 -7 6 -13 22
-14 36 -2 21 -7 25 -28 24 -15 -1 -27 3 -28 9 -3 37 -11 51 -26 48 -9 -2 -16
2 -16 8 0 6 -4 9 -9 5 -5 -3 -12 4 -16 15 -3 11 -13 20 -20 20 -8 0 -17 5 -21
12 -5 7 -3 8 6 3 9 -5 11 -4 6 3 -4 7 -16 12 -27 12 -12 0 -19 7 -19 19 0 14
-6 18 -22 15 -13 -2 -17 -2 -11 2 10 4 10 9 -1 20 -8 8 -19 14 -25 14 -6 0
-11 7 -11 15 0 11 -11 15 -37 15 -21 0 -33 4 -28 8 21 15 17 35 -6 29 -15 -4
-23 0 -26 14 -3 12 -14 19 -29 19 -13 0 -24 5 -24 11 0 5 4 7 10 4 6 -3 7 1 3
10 -4 12 -8 13 -13 5 -6 -9 -9 -9 -15 0 -4 6 -14 9 -22 6 -11 -4 -13 -2 -9 9
5 13 -5 20 -26 16 -5 0 -8 4 -8 10 0 6 -9 8 -22 4 -22 -7 -22 -6 -4 7 20 16
18 17 -36 19 -11 0 -15 6 -11 15 3 8 2 14 -3 13 -5 -1 -12 0 -16 1 -13 4 -27
7 -38 9 -5 0 -10 8 -10 17 0 10 -6 14 -15 10 -8 -3 -15 -1 -15 4 0 5 -7 7 -15
4 -9 -4 -15 0 -15 10 0 11 -9 16 -26 16 -17 0 -23 4 -18 13 6 10 4 10 -7 0
-20 -19 -34 -16 -18 4 10 11 10 14 2 9 -7 -4 -13 -3 -13 2 0 6 -13 9 -30 8
-16 -1 -30 2 -30 7 0 4 -5 5 -12 1 -7 -5 -8 -3 -4 5 5 7 15 10 24 6 9 -3 13
-2 8 2 -4 4 -26 9 -49 11 -65 4 -67 5 -67 15 0 5 7 7 15 4 8 -4 17 -2 20 3 4
6 -13 10 -39 10 -24 0 -52 3 -62 7 -16 6 -16 7 2 15 15 7 13 7 -8 5 -16 -3
-28 -1 -28 2 0 4 -11 8 -25 9 -14 1 -36 2 -50 3 -14 1 -25 6 -25 11 0 5 4 7 9
3 5 -3 13 -1 16 5 4 7 -5 10 -27 9 -65 -4 -78 0 -71 19 7 16 6 16 -11 0 -20
-20 -36 -23 -36 -7 0 5 5 7 10 4 6 -3 10 -1 10 4 0 10 -15 12 -102 13 -41 0
-45 6 -25 28 10 12 9 12 -5 1 -10 -7 -18 -10 -18 -5 0 5 -11 9 -24 9 -13 0
-21 -4 -18 -10 3 -5 -1 -5 -9 1 -8 7 -33 12 -56 12 -24 1 -47 4 -53 7 -5 3
-10 1 -10 -6 0 -7 -8 -5 -22 7 -12 10 -18 14 -14 7 5 -9 -3 -12 -29 -11 -19 1
-35 5 -35 9 0 4 9 6 20 4 11 -2 22 -1 24 3 2 4 -15 8 -40 8 -24 0 -44 -4 -44
-9 0 -5 8 -6 17 -3 10 4 14 4 10 -1 -5 -4 -22 -8 -38 -9 -27 -2 -28 0 -12 12
16 11 9 13 -47 11 -36 -1 -71 -6 -79 -11 -9 -6 -12 -5 -8 1 4 6 -21 10 -68 11
-41 1 -75 -3 -75 -8 0 -5 8 -7 18 -5 10 2 25 0 32 -5 8 -5 -6 -7 -33 -6 -29 2
-47 -1 -47 -8 0 -7 -3 -8 -8 -1 -4 6 -18 10 -32 10 -14 0 -31 6 -38 15 -10 13
-11 13 -6 -2z m724 -48 c0 -5 -7 -7 -15 -4 -8 4 -15 8 -15 10 0 2 7 4 15 4 8
0 15 -4 15 -10z m-1599 -238 c-7 -2 -18 1 -23 6 -8 8 -4 9 13 5 13 -4 18 -8
10 -11z m-184 -104 c-3 -8 -6 -5 -6 6 -1 11 2 17 5 13 3 -3 4 -12 1 -19z
m3098 -328 c-3 -5 -12 -10 -18 -10 -7 0 -6 4 3 10 19 12 23 12 15 0z m275
-306 c0 -2 -7 -4 -15 -4 -8 0 -15 4 -15 10 0 5 7 7 15 4 8 -4 15 -8 15 -10z
m-4340 -434 c0 -5 -2 -10 -4 -10 -3 0 -8 5 -11 10 -3 6 -1 10 4 10 6 0 11 -4
11 -10z m4700 -270 c0 -5 -2 -10 -4 -10 -3 0 -8 5 -11 10 -3 6 -1 10 4 10 6 0
11 -4 11 -10z m-4942 -594 c-1 -14 -5 -23 -9 -20 -4 2 -6 12 -4 22 5 23 4 22
10 22 3 0 4 -11 3 -24z m-1 -51 c0 -8 -4 -12 -9 -9 -4 3 -8 9 -8 15 0 5 4 9 8
9 5 0 9 -7 9 -15z m5069 -100 c-3 -8 0 -15 6 -15 6 0 9 -3 5 -6 -10 -11 -26 6
-20 21 3 8 7 15 10 15 3 0 3 -7 -1 -15z m-5072 -41 c3 -8 2 -12 -4 -9 -6 3
-10 10 -10 16 0 14 7 11 14 -7z m5086 -4 c0 -5 -5 -10 -11 -10 -5 0 -7 5 -4
10 3 6 8 10 11 10 2 0 4 -4 4 -10z m0 -44 c0 -3 -4 -8 -10 -11 -5 -3 -10 -1
-10 4 0 6 5 11 10 11 6 0 10 -2 10 -4z m-5085 -66 c3 -5 1 -10 -4 -10 -6 0
-11 5 -11 10 0 6 2 10 4 10 3 0 8 -4 11 -10z m30 -380 c-3 -5 -1 -10 6 -10 7
0 10 -3 6 -6 -9 -9 -28 6 -22 17 4 5 8 9 11 9 3 0 2 -4 -1 -10z m4920 -360 c3
-6 -1 -7 -9 -4 -18 7 -21 14 -7 14 6 0 13 -4 16 -10z m-40 -100 c3 -5 1 -10
-4 -10 -6 0 -11 5 -11 10 0 6 2 10 4 10 3 0 8 -4 11 -10z m-4265 -770 c0 -5
-2 -10 -4 -10 -3 0 -8 5 -11 10 -3 6 -1 10 4 10 6 0 11 -4 11 -10z m575 -488
c-3 -3 -11 0 -18 7 -9 10 -8 11 6 5 10 -3 15 -9 12 -12z m2385 -116 c0 -3 -4
-8 -10 -11 -5 -3 -10 -1 -10 4 0 6 5 11 10 11 6 0 10 -2 10 -4z m-1770 -140
c0 -2 -7 -6 -15 -10 -8 -3 -15 -1 -15 4 0 6 7 10 15 10 8 0 15 -2 15 -4z m325
-66 c-3 -5 -12 -10 -18 -10 -7 0 -6 4 3 10 19 12 23 12 15 0z m322 -36 c-8 -8
-48 -13 -43 -6 2 4 14 8 26 9 12 1 20 0 17 -3z m63 -8 c-7 -7 -13 -7 -20 0 -6
6 -3 10 10 10 13 0 16 -4 10 -10z"/>
<path d="M2326 5110 c8 -7 74 -7 74 0 0 4 -18 7 -39 6 -22 0 -37 -3 -35 -6z"/>
<path d="M2096 5081 c-19 -7 -19 -8 2 -13 15 -4 22 -2 22 8 0 8 -1 14 -2 13
-2 0 -12 -4 -22 -8z"/>
<path d="M1522 4911 c-11 -7 -11 -9 0 -14 9 -3 15 1 15 9 0 8 -1 14 -1 14 -1
0 -7 -4 -14 -9z"/>
<path d="M310 3790 c0 -5 5 -10 11 -10 5 0 7 5 4 10 -3 6 -8 10 -11 10 -2 0
-4 -4 -4 -10z"/>
<path d="M146 3423 c-6 -14 -5 -15 5 -6 7 7 10 15 7 18 -3 3 -9 -2 -12 -12z"/>
<path d="M75 3200 c-3 -5 -1 -10 4 -10 6 0 11 5 11 10 0 6 -2 10 -4 10 -3 0
-8 -4 -11 -10z"/>
<path d="M5075 2960 c3 -5 8 -10 11 -10 2 0 4 5 4 10 0 6 -5 10 -11 10 -5 0
-7 -4 -4 -10z"/>
<path d="M5106 2753 c-6 -14 -5 -15 5 -6 7 7 10 15 7 18 -3 3 -9 -2 -12 -12z"/>
<path d="M5109 2728 c-6 -20 -6 -39 0 -42 4 -3 7 6 7 20 0 20 -4 32 -7 22z"/>
<path d="M241 1467 c-8 -10 -7 -14 2 -14 8 0 14 6 14 14 0 7 -1 13 -2 13 -2 0
-8 -6 -14 -13z"/>
<path d="M310 1329 c0 -5 5 -7 10 -4 6 3 10 8 10 11 0 2 -4 4 -10 4 -5 0 -10
-5 -10 -11z"/>
<path d="M670 826 c0 -2 7 -7 16 -10 8 -3 12 -2 9 4 -6 10 -25 14 -25 6z"/>
<path d="M2078 47 c-10 -6 -9 -8 3 -4 9 3 21 1 26 -4 6 -6 10 -5 10 4 0 16
-20 18 -39 4z"/>
<path d="M2317 9 c7 -7 15 -10 18 -7 3 3 -2 9 -12 12 -14 6 -15 5 -6 -5z"/>
</g>
</svg>
